<svg width="260" height="60" viewBox="0 0 260 60" fill="none" xmlns="http://www.w3.org/2000/svg">
<path d="M90.924 30.284C90.924 29.78 90.792 29.36 90.528 29.024C90.264 28.688 89.904 28.4 89.448 28.16C89.016 27.92 88.512 27.716 87.936 27.548C87.36 27.38 86.76 27.224 86.136 27.08C85.392 26.888 84.66 26.672 83.94 26.432C83.22 26.192 82.56 25.88 81.96 25.496C81.36 25.088 80.88 24.572 80.52 23.948C80.16 23.324 79.98 22.544 79.98 21.608C79.98 20.552 80.244 19.628 80.772 18.836C81.3 18.044 82.056 17.432 83.04 17C84.024 16.544 85.224 16.316 86.64 16.316C87.72 16.316 88.668 16.4 89.484 16.568C90.3 16.736 90.984 16.952 91.536 17.216C92.088 17.456 92.496 17.684 92.76 17.9V21.752H89.7V18.332C89.964 18.332 90.18 18.38 90.348 18.476C90.54 18.572 90.684 18.704 90.78 18.872C90.876 19.016 90.936 19.196 90.96 19.412C91.008 19.628 90.996 19.844 90.924 20.06C90.66 19.676 90.312 19.352 89.88 19.088C89.448 18.8 88.956 18.584 88.404 18.44C87.876 18.296 87.288 18.224 86.64 18.224C85.368 18.224 84.42 18.512 83.796 19.088C83.172 19.64 82.86 20.336 82.86 21.176C82.86 21.728 82.992 22.184 83.256 22.544C83.544 22.904 83.916 23.204 84.372 23.444C84.852 23.684 85.392 23.888 85.992 24.056C86.592 24.224 87.204 24.392 87.828 24.56C88.548 24.728 89.268 24.944 89.988 25.208C90.708 25.448 91.356 25.76 91.932 26.144C92.532 26.528 93 27.02 93.336 27.62C93.696 28.196 93.876 28.94 93.876 29.852C93.876 30.908 93.588 31.856 93.012 32.696C92.436 33.512 91.608 34.16 90.528 34.64C89.472 35.12 88.2 35.36 86.712 35.36C85.56 35.36 84.516 35.264 83.58 35.072C82.668 34.88 81.852 34.64 81.132 34.352C80.412 34.04 79.776 33.704 79.224 33.344V29.276H82.356V33.812C82.02 33.596 81.756 33.392 81.564 33.2C81.372 32.984 81.24 32.78 81.168 32.588C81.096 32.372 81.072 32.156 81.096 31.94C81.12 31.724 81.168 31.508 81.24 31.292C81.648 31.772 82.116 32.168 82.644 32.48C83.196 32.792 83.808 33.032 84.48 33.2C85.152 33.344 85.884 33.416 86.676 33.416C87.564 33.416 88.32 33.296 88.944 33.056C89.568 32.816 90.048 32.468 90.384 32.012C90.744 31.532 90.924 30.956 90.924 30.284ZM116.974 35H107.794V33.452H107.902C108.214 33.452 108.562 33.44 108.946 33.416C109.354 33.392 109.702 33.356 109.99 33.308C110.278 33.236 110.422 33.164 110.422 33.092L103.582 25.316V25.136L110.17 18.908C110.17 18.716 110.002 18.572 109.666 18.476C109.354 18.38 108.97 18.32 108.514 18.296C108.082 18.248 107.686 18.224 107.326 18.224H107.11V16.676H115.858V18.224H115.786C115.33 18.224 114.862 18.284 114.382 18.404C113.926 18.524 113.47 18.716 113.014 18.98C112.582 19.22 112.15 19.544 111.718 19.952L106.066 25.352L106.174 23.84L113.518 32.084C113.878 32.468 114.238 32.756 114.598 32.948C114.958 33.14 115.33 33.272 115.714 33.344C116.122 33.416 116.53 33.452 116.938 33.452H116.974V35ZM102.682 8.468V33.092C102.682 33.164 102.826 33.236 103.114 33.308C103.402 33.356 103.75 33.392 104.158 33.416C104.566 33.44 104.938 33.452 105.274 33.452H105.346V35H96.4539V33.452H96.5259C97.1019 33.452 97.6059 33.416 98.0379 33.344C98.4939 33.272 98.8419 33.14 99.0819 32.948C99.3459 32.756 99.4779 32.492 99.4779 32.156V11.744C99.4779 11.384 99.3819 11.108 99.1899 10.916C98.9979 10.724 98.7099 10.568 98.3259 10.448C97.9419 10.328 97.4379 10.22 96.8139 10.124L96.4179 10.052V8.468H102.682ZM123.559 12.608C122.935 12.608 122.407 12.416 121.975 12.032C121.567 11.624 121.363 11.084 121.363 10.412C121.363 9.74 121.567 9.212 121.975 8.828C122.407 8.444 122.935 8.252 123.559 8.252C124.183 8.252 124.699 8.444 125.107 8.828C125.539 9.212 125.755 9.74 125.755 10.412C125.755 11.084 125.539 11.624 125.107 12.032C124.699 12.416 124.183 12.608 123.559 12.608ZM125.323 16.676V32.156C125.323 32.684 125.599 33.032 126.151 33.2C126.703 33.368 127.411 33.452 128.275 33.452H128.311V35H119.095V33.452H119.131C119.995 33.452 120.703 33.368 121.255 33.2C121.831 33.032 122.119 32.684 122.119 32.156V19.952C122.119 19.424 121.903 19.064 121.471 18.872C121.039 18.68 120.367 18.5 119.455 18.332L119.059 18.26V16.676H125.323ZM136.568 8.468V32.156C136.568 32.684 136.844 33.032 137.396 33.2C137.948 33.368 138.644 33.452 139.484 33.452H139.556V35H130.376V33.452H130.448C131.288 33.452 131.984 33.368 132.536 33.2C133.088 33.032 133.364 32.684 133.364 32.156V11.744C133.364 11.384 133.268 11.108 133.076 10.916C132.884 10.724 132.596 10.568 132.212 10.448C131.852 10.328 131.36 10.22 130.736 10.124L130.34 10.052V8.468H136.568ZM147.607 8.468V32.156C147.607 32.684 147.883 33.032 148.435 33.2C148.987 33.368 149.683 33.452 150.523 33.452H150.595V35H141.415V33.452H141.487C142.327 33.452 143.023 33.368 143.575 33.2C144.127 33.032 144.403 32.684 144.403 32.156V11.744C144.403 11.384 144.307 11.108 144.115 10.916C143.923 10.724 143.635 10.568 143.251 10.448C142.891 10.328 142.399 10.22 141.775 10.124L141.379 10.052V8.468H147.607Z" fill="#D9D9D9"/>
<path d="M152.598 35V33.452H152.67C153.534 33.452 154.242 33.368 154.794 33.2C155.346 33.032 155.622 32.684 155.622 32.156V19.952C155.622 19.592 155.526 19.328 155.334 19.16C155.142 18.968 154.842 18.812 154.434 18.692C154.05 18.572 153.558 18.452 152.958 18.332L152.598 18.26V16.676H158.466V20.384L158.826 20.816V33.092C158.826 33.164 158.958 33.236 159.222 33.308C159.51 33.356 159.846 33.392 160.23 33.416C160.614 33.44 160.962 33.452 161.274 33.452H161.31V35H152.598ZM172.038 35H163.758V33.452H163.83C164.166 33.452 164.514 33.44 164.874 33.416C165.258 33.392 165.582 33.356 165.846 33.308C166.134 33.236 166.278 33.164 166.278 33.092V22.472C166.278 21.536 166.194 20.78 166.026 20.204C165.882 19.604 165.63 19.16 165.27 18.872C164.91 18.584 164.394 18.44 163.722 18.44C162.978 18.44 162.282 18.608 161.634 18.944C161.01 19.28 160.41 19.76 159.834 20.384C159.282 20.984 158.73 21.74 158.178 22.652L158.106 20.348C158.73 19.46 159.342 18.716 159.942 18.116C160.542 17.516 161.19 17.072 161.886 16.784C162.606 16.472 163.41 16.316 164.298 16.316C165.33 16.316 166.23 16.52 166.998 16.928C167.79 17.336 168.402 17.972 168.834 18.836C169.266 19.676 169.482 20.768 169.482 22.112V33.092C169.482 33.164 169.614 33.236 169.878 33.308C170.166 33.356 170.502 33.392 170.886 33.416C171.294 33.44 171.666 33.452 172.002 33.452H172.038V35ZM183.27 35H174.486V33.452H174.558C174.894 33.452 175.242 33.44 175.602 33.416C175.986 33.368 176.31 33.32 176.574 33.272C176.838 33.224 176.97 33.164 176.97 33.092V22.472C176.97 21.536 176.886 20.78 176.718 20.204C176.574 19.604 176.322 19.16 175.962 18.872C175.602 18.584 175.086 18.44 174.414 18.44C173.694 18.44 173.01 18.608 172.362 18.944C171.714 19.28 171.102 19.76 170.526 20.384C169.974 21.008 169.422 21.764 168.87 22.652L168.798 20.348C169.398 19.46 169.998 18.716 170.598 18.116C171.222 17.516 171.882 17.072 172.578 16.784C173.298 16.472 174.102 16.316 174.99 16.316C176.022 16.316 176.922 16.52 177.69 16.928C178.458 17.336 179.058 17.972 179.49 18.836C179.946 19.676 180.174 20.768 180.174 22.112V32.156C180.174 32.684 180.45 33.032 181.002 33.2C181.578 33.368 182.298 33.452 183.162 33.452H183.27V35ZM197.926 23.948L197.89 25.64C196.69 25.76 195.622 25.916 194.686 26.108C193.75 26.3 192.934 26.54 192.238 26.828C191.566 27.092 191.002 27.404 190.546 27.764C190.114 28.1 189.79 28.508 189.574 28.988C189.358 29.444 189.25 29.948 189.25 30.5C189.25 31.1 189.382 31.628 189.646 32.084C189.91 32.516 190.282 32.864 190.762 33.128C191.242 33.368 191.794 33.488 192.418 33.488C193.258 33.488 194.002 33.284 194.65 32.876C195.322 32.468 195.91 31.904 196.414 31.184C196.942 30.464 197.398 29.612 197.782 28.628L197.854 30.896C197.494 31.808 197.002 32.6 196.378 33.272C195.778 33.944 195.082 34.46 194.29 34.82C193.498 35.18 192.598 35.36 191.59 35.36C190.558 35.36 189.61 35.168 188.746 34.784C187.906 34.4 187.222 33.848 186.694 33.128C186.19 32.384 185.938 31.52 185.938 30.536C185.938 29.552 186.19 28.7 186.694 27.98C187.198 27.236 187.954 26.612 188.962 26.108C189.97 25.58 191.218 25.148 192.706 24.812C194.218 24.452 195.958 24.164 197.926 23.948ZM197.278 35V31.184L196.918 31.112V22.328C196.918 21.296 196.774 20.48 196.486 19.88C196.222 19.28 195.826 18.86 195.298 18.62C194.77 18.356 194.11 18.224 193.318 18.224C192.142 18.224 191.17 18.476 190.402 18.98C189.634 19.46 189.022 20.036 188.566 20.708C188.518 20.396 188.53 20.12 188.602 19.88C188.698 19.616 188.818 19.388 188.962 19.196C189.106 19.004 189.274 18.836 189.466 18.692C189.682 18.548 189.91 18.44 190.15 18.368V22.112H187.054V18.44C187.414 18.152 187.894 17.852 188.494 17.54C189.118 17.204 189.862 16.916 190.726 16.676C191.59 16.436 192.538 16.316 193.57 16.316C194.434 16.316 195.25 16.412 196.018 16.604C196.786 16.796 197.482 17.12 198.106 17.576C198.73 18.008 199.222 18.596 199.582 19.34C199.942 20.06 200.122 20.96 200.122 22.04V32.156C200.122 32.492 200.242 32.756 200.482 32.948C200.746 33.14 201.094 33.272 201.526 33.344C201.982 33.416 202.498 33.452 203.074 33.452V35H197.278ZM203.515 18.584V16.82H203.695C204.415 16.82 205.027 16.772 205.531 16.676C206.059 16.58 206.455 16.388 206.719 16.1C206.983 15.812 207.127 15.416 207.151 14.912L209.347 16.676H215.395V18.584H203.515ZM209.995 28.88C209.995 29.936 210.127 30.8 210.391 31.472C210.679 32.12 211.075 32.588 211.579 32.876C212.083 33.164 212.659 33.308 213.307 33.308C213.835 33.308 214.315 33.26 214.747 33.164C215.179 33.044 215.539 32.948 215.827 32.876V34.82C215.611 34.916 215.347 35 215.035 35.072C214.747 35.168 214.423 35.24 214.063 35.288C213.727 35.336 213.367 35.36 212.983 35.36C211.927 35.36 210.919 35.168 209.959 34.784C209.023 34.4 208.255 33.74 207.655 32.804C207.079 31.868 206.791 30.572 206.791 28.916V17.144L207.115 16.928L207.151 11.672H209.995V28.88ZM227.43 33.416C228.51 33.416 229.422 33.224 230.166 32.84C230.934 32.432 231.594 31.94 232.146 31.364C232.698 30.764 233.166 30.176 233.55 29.6L235.062 31.004C234.534 31.796 233.91 32.528 233.19 33.2C232.494 33.872 231.666 34.4 230.706 34.784C229.746 35.168 228.618 35.36 227.322 35.36C225.426 35.36 223.758 34.952 222.318 34.136C220.902 33.32 219.798 32.192 219.006 30.752C218.238 29.312 217.854 27.668 217.854 25.82C217.854 23.924 218.262 22.268 219.078 20.852C219.918 19.436 221.07 18.332 222.534 17.54C224.022 16.724 225.738 16.316 227.682 16.316C228.858 16.316 229.902 16.448 230.814 16.712C231.75 16.976 232.542 17.288 233.19 17.648C233.862 17.984 234.366 18.32 234.702 18.656V23.012H231.534V18.908C231.798 18.956 232.038 19.04 232.254 19.16C232.47 19.256 232.65 19.4 232.794 19.592C232.962 19.784 233.082 20 233.154 20.24C233.226 20.48 233.226 20.744 233.154 21.032C232.746 20.24 232.026 19.58 230.994 19.052C229.986 18.5 228.882 18.224 227.682 18.224C226.266 18.224 225.078 18.548 224.118 19.196C223.158 19.844 222.438 20.744 221.958 21.896C221.478 23.048 221.238 24.356 221.238 25.82C221.238 26.948 221.37 27.98 221.634 28.916C221.922 29.852 222.33 30.656 222.858 31.328C223.386 32 224.034 32.516 224.802 32.876C225.57 33.236 226.446 33.416 227.43 33.416ZM243.799 8.468V33.092C243.799 33.164 243.931 33.236 244.195 33.308C244.483 33.356 244.831 33.392 245.239 33.416C245.647 33.44 246.031 33.452 246.391 33.452H246.463V35H237.535V33.452H237.607C238.183 33.452 238.687 33.416 239.119 33.344C239.575 33.272 239.935 33.14 240.199 32.948C240.463 32.756 240.595 32.492 240.595 32.156V11.744C240.595 11.384 240.499 11.108 240.307 10.916C240.115 10.724 239.827 10.568 239.443 10.448C239.059 10.328 238.555 10.22 237.931 10.124L237.535 10.052V8.468H243.799ZM258.559 35H249.667V33.452H249.739C250.075 33.452 250.447 33.44 250.855 33.416C251.263 33.392 251.611 33.356 251.899 33.308C252.211 33.236 252.367 33.164 252.367 33.092V22.436C252.367 21.5 252.271 20.744 252.079 20.168C251.887 19.568 251.563 19.136 251.107 18.872C250.651 18.584 250.039 18.44 249.271 18.44C248.455 18.44 247.687 18.608 246.967 18.944C246.247 19.256 245.575 19.724 244.951 20.348C244.327 20.972 243.727 21.74 243.151 22.652L243.079 20.42C243.727 19.508 244.387 18.752 245.059 18.152C245.731 17.528 246.451 17.072 247.219 16.784C247.987 16.472 248.863 16.316 249.847 16.316C250.999 16.316 251.995 16.52 252.835 16.928C253.699 17.336 254.371 17.972 254.851 18.836C255.331 19.676 255.571 20.768 255.571 22.112V32.156C255.571 32.492 255.691 32.756 255.931 32.948C256.195 33.14 256.555 33.272 257.011 33.344C257.467 33.416 257.959 33.452 258.487 33.452H258.559V35Z" fill="#2D6B5D"/>
<path d="M79.0767 55V47.3169H80.2998L80.3584 48.3057H80.4023C80.5977 47.9834 80.8516 47.7026 81.1641 47.4634C81.4814 47.2192 81.8623 47.0972 82.3066 47.0972C82.4092 47.0972 82.519 47.1094 82.6362 47.1338C82.7534 47.1582 82.8364 47.1802 82.8853 47.1997V48.4521C82.7876 48.4326 82.6851 48.418 82.5776 48.4082C82.4702 48.3984 82.353 48.3936 82.2261 48.3936C81.7915 48.3936 81.4204 48.5083 81.1128 48.7378C80.8052 48.9673 80.5781 49.2529 80.4316 49.5947V55H79.0767ZM83.5811 51.2793V51.0449C83.5811 49.8828 83.8984 48.9355 84.5332 48.2031C85.168 47.4658 86.0078 47.0972 87.0527 47.0972C88.0977 47.0972 88.9009 47.4414 89.4624 48.1299C90.0288 48.8135 90.312 49.7412 90.312 50.9131V51.4624H84.4087V50.3857H88.957V50.2173C88.957 49.6606 88.7983 49.187 88.481 48.7964C88.1685 48.4009 87.7119 48.2031 87.1113 48.2031C86.3887 48.2031 85.8491 48.4766 85.4927 49.0234C85.1362 49.5703 84.958 50.2441 84.958 51.0449V51.2793C84.958 52.0752 85.146 52.7466 85.522 53.2935C85.8979 53.8403 86.4814 54.1138 87.2725 54.1138C87.7607 54.1138 88.1807 54.0063 88.5322 53.7915C88.8838 53.5767 89.167 53.3228 89.3818 53.0298L90.2534 53.7256C90.0142 54.0869 89.6406 54.4263 89.1328 54.7437C88.625 55.061 88.0049 55.2197 87.2725 55.2197C86.0811 55.2197 85.168 54.8535 84.5332 54.1211C83.8984 53.3838 83.5811 52.4365 83.5811 51.2793ZM91.5205 51.2793V51.0449C91.5205 49.8828 91.8354 48.9355 92.4653 48.2031C93.0952 47.4658 93.9619 47.0972 95.0654 47.0972C96.0859 47.0972 96.8623 47.373 97.3945 47.9248C97.9268 48.4766 98.1929 49.0942 98.1929 49.7778V49.8218H96.8818V49.7778C96.8818 49.3628 96.7378 48.9966 96.4497 48.6792C96.1616 48.3618 95.7002 48.2031 95.0654 48.2031C94.3281 48.2031 93.7837 48.4766 93.4321 49.0234C93.0806 49.5703 92.9048 50.2441 92.9048 51.0449V51.2793C92.9048 52.0752 93.0806 52.7466 93.4321 53.2935C93.7837 53.8403 94.3281 54.1138 95.0654 54.1138C95.7002 54.1138 96.1616 53.9551 96.4497 53.6377C96.7378 53.3203 96.8818 52.9541 96.8818 52.5391V52.4951H98.1929V52.5391C98.1929 53.2227 97.9268 53.8403 97.3945 54.3921C96.8623 54.9438 96.0859 55.2197 95.0654 55.2197C93.9619 55.2197 93.0952 54.8535 92.4653 54.1211C91.8354 53.3838 91.5205 52.4365 91.5205 51.2793ZM99.7749 55V47.3169H100.998L101.057 48.3057H101.101C101.296 47.9834 101.55 47.7026 101.862 47.4634C102.18 47.2192 102.561 47.0972 103.005 47.0972C103.107 47.0972 103.217 47.1094 103.334 47.1338C103.452 47.1582 103.535 47.1802 103.583 47.1997V48.4521C103.486 48.4326 103.383 48.418 103.276 48.4082C103.168 48.3984 103.051 48.3936 102.924 48.3936C102.49 48.3936 102.119 48.5083 101.811 48.7378C101.503 48.9673 101.276 49.2529 101.13 49.5947V55H99.7749ZM104.799 52.2754V47.3169H106.154V52.29C106.154 52.9102 106.291 53.3521 106.564 53.6157C106.838 53.8794 107.229 54.0112 107.736 54.0112C108.171 54.0112 108.554 53.894 108.886 53.6597C109.218 53.4253 109.477 53.1226 109.663 52.7515V47.3169H111.018V55H109.794L109.736 54.0112H109.692C109.414 54.3628 109.074 54.6411 108.674 54.8462C108.273 55.0464 107.829 55.1465 107.341 55.1465C106.569 55.1465 105.952 54.9268 105.488 54.4873C105.029 54.0479 104.799 53.3105 104.799 52.2754ZM112.102 48.3496V47.3169H116.481V48.3496H112.102ZM113.479 53.0957V47.9395V47.7271V45.3979H114.826V53.0957C114.826 53.4424 114.895 53.689 115.031 53.8354C115.168 53.9819 115.383 54.0552 115.676 54.0552C115.812 54.0552 115.947 54.0405 116.079 54.0112C116.21 53.9819 116.342 53.9429 116.474 53.894V55C116.352 55.0586 116.188 55.1099 115.983 55.1538C115.778 55.1978 115.556 55.2197 115.317 55.2197C114.755 55.2197 114.309 55.0488 113.977 54.707C113.645 54.3652 113.479 53.8281 113.479 53.0957ZM117.5 52.7368C117.5 51.9604 117.807 51.355 118.422 50.9204C119.042 50.4858 119.831 50.2686 120.788 50.2686H122.524V49.7412C122.524 49.2773 122.404 48.9014 122.165 48.6133C121.926 48.3203 121.513 48.1738 120.927 48.1738C120.346 48.1738 119.929 48.2959 119.675 48.54C119.421 48.7793 119.294 49.0576 119.294 49.375V49.4189H117.954V49.375C117.954 48.7646 118.225 48.2324 118.767 47.7783C119.309 47.3242 120.041 47.0972 120.964 47.0972C121.887 47.0972 122.602 47.3193 123.11 47.7637C123.623 48.2031 123.879 48.8623 123.879 49.7412V53.2422C123.879 53.5596 123.901 53.8599 123.945 54.1431C123.994 54.4214 124.062 54.668 124.15 54.8828V55H122.846C122.778 54.8779 122.714 54.7192 122.656 54.5239C122.602 54.3286 122.568 54.1333 122.553 53.938C122.373 54.2554 122.082 54.5361 121.682 54.7803C121.281 55.0244 120.764 55.1465 120.129 55.1465C119.396 55.1465 118.774 54.9414 118.261 54.5312C117.753 54.1162 117.5 53.5181 117.5 52.7368ZM118.854 52.6636C118.854 53.103 118.981 53.4473 119.235 53.6963C119.489 53.9453 119.882 54.0698 120.415 54.0698C120.952 54.0698 121.438 53.8843 121.872 53.5132C122.307 53.1421 122.524 52.749 122.524 52.334V51.228H120.935C120.246 51.228 119.726 51.3574 119.375 51.6162C119.028 51.875 118.854 52.2241 118.854 52.6636ZM125.996 55V47.3169H127.219L127.277 48.3057H127.321C127.59 47.959 127.917 47.6831 128.303 47.478C128.693 47.2729 129.125 47.1704 129.599 47.1704C130.117 47.1704 130.561 47.2729 130.932 47.478C131.308 47.6831 131.594 48.0151 131.789 48.4741H131.833C132.15 48.0151 132.504 47.6831 132.895 47.478C133.286 47.2729 133.735 47.1704 134.243 47.1704C135.039 47.1704 135.659 47.3901 136.103 47.8296C136.552 48.269 136.777 49.0063 136.777 50.0415V55H135.429V50.0269C135.429 49.4116 135.297 48.9722 135.034 48.7085C134.77 48.4399 134.396 48.3057 133.913 48.3057C133.493 48.3057 133.127 48.4229 132.814 48.6572C132.502 48.8916 132.253 49.1943 132.067 49.5654V55H130.712V50.0269C130.712 49.4116 130.581 48.9722 130.317 48.7085C130.053 48.4399 129.68 48.3057 129.196 48.3057C128.776 48.3057 128.41 48.4229 128.098 48.6572C127.785 48.8916 127.536 49.1943 127.351 49.5654V55H125.996ZM138.41 51.2793V51.0449C138.41 49.8828 138.728 48.9355 139.362 48.2031C139.997 47.4658 140.837 47.0972 141.882 47.0972C142.927 47.0972 143.73 47.4414 144.292 48.1299C144.858 48.8135 145.141 49.7412 145.141 50.9131V51.4624H139.238V50.3857H143.786V50.2173C143.786 49.6606 143.627 49.187 143.31 48.7964C142.998 48.4009 142.541 48.2031 141.94 48.2031C141.218 48.2031 140.678 48.4766 140.322 49.0234C139.965 49.5703 139.787 50.2441 139.787 51.0449V51.2793C139.787 52.0752 139.975 52.7466 140.351 53.2935C140.727 53.8403 141.311 54.1138 142.102 54.1138C142.59 54.1138 143.01 54.0063 143.361 53.7915C143.713 53.5767 143.996 53.3228 144.211 53.0298L145.083 53.7256C144.843 54.0869 144.47 54.4263 143.962 54.7437C143.454 55.061 142.834 55.2197 142.102 55.2197C140.91 55.2197 139.997 54.8535 139.362 54.1211C138.728 53.3838 138.41 52.4365 138.41 51.2793ZM146.811 55V47.3169H148.034L148.093 48.3057H148.137C148.41 47.9541 148.747 47.6782 149.147 47.478C149.553 47.2729 150 47.1704 150.488 47.1704C151.259 47.1704 151.875 47.3901 152.333 47.8296C152.797 48.269 153.029 49.0063 153.029 50.0415V55H151.674V50.0269C151.674 49.4116 151.535 48.9722 151.257 48.7085C150.983 48.4399 150.593 48.3057 150.085 48.3057C149.65 48.3057 149.267 48.4229 148.935 48.6572C148.608 48.8916 148.352 49.1943 148.166 49.5654V55H146.811ZM154.04 48.3496V47.3169H158.42V48.3496H154.04ZM155.417 53.0957V47.9395V47.7271V45.3979H156.765V53.0957C156.765 53.4424 156.833 53.689 156.97 53.8354C157.106 53.9819 157.321 54.0552 157.614 54.0552C157.751 54.0552 157.885 54.0405 158.017 54.0112C158.149 53.9819 158.281 53.9429 158.413 53.894V55C158.291 55.0586 158.127 55.1099 157.922 55.1538C157.717 55.1978 157.495 55.2197 157.255 55.2197C156.694 55.2197 156.247 55.0488 155.915 54.707C155.583 54.3652 155.417 53.8281 155.417 53.0957ZM159.255 51.2793V51.0449C159.255 49.8828 159.582 48.9355 160.236 48.2031C160.896 47.4658 161.774 47.0972 162.873 47.0972C163.972 47.0972 164.848 47.4658 165.502 48.2031C166.162 48.9355 166.491 49.8828 166.491 51.0449V51.2793C166.491 52.4365 166.162 53.3838 165.502 54.1211C164.848 54.8535 163.972 55.2197 162.873 55.2197C161.774 55.2197 160.896 54.8535 160.236 54.1211C159.582 53.3838 159.255 52.4365 159.255 51.2793ZM160.639 51.0449V51.2793C160.639 52.0703 160.827 52.7417 161.203 53.2935C161.579 53.8403 162.136 54.1138 162.873 54.1138C163.615 54.1138 164.174 53.8403 164.55 53.2935C164.926 52.7417 165.114 52.0679 165.114 51.272V51.0449C165.114 50.249 164.926 49.5776 164.55 49.0308C164.174 48.479 163.615 48.2031 162.873 48.2031C162.136 48.2031 161.579 48.479 161.203 49.0308C160.827 49.5776 160.639 50.249 160.639 51.0449ZM171.354 52.2168C171.354 51.4355 171.621 50.7715 172.153 50.2246C172.685 49.6729 173.317 49.1675 174.05 48.7085L175.222 47.9761C175.607 47.7319 175.874 47.4878 176.02 47.2437C176.171 46.9995 176.247 46.7285 176.247 46.4307C176.247 46.084 176.137 45.7959 175.917 45.5664C175.698 45.3369 175.38 45.2222 174.965 45.2222C174.55 45.2222 174.223 45.3491 173.984 45.603C173.745 45.8569 173.625 46.1572 173.625 46.5039C173.625 46.8457 173.723 47.1777 173.918 47.5C174.113 47.8174 174.45 48.269 174.929 48.855L179.931 55H178.32L173.911 49.5728C173.393 48.938 172.995 48.3911 172.717 47.9321C172.443 47.4683 172.307 46.9922 172.307 46.5039C172.307 45.8203 172.561 45.2515 173.068 44.7974C173.581 44.3433 174.213 44.1162 174.965 44.1162C175.717 44.1162 176.325 44.3311 176.789 44.7607C177.258 45.1904 177.492 45.7227 177.492 46.3574C177.492 46.9434 177.351 47.4316 177.067 47.8223C176.789 48.2129 176.416 48.5547 175.947 48.8477L174.775 49.5801C174.096 50.0098 173.579 50.4224 173.222 50.8179C172.866 51.2134 172.688 51.6797 172.688 52.2168C172.688 52.7539 172.878 53.1934 173.259 53.5352C173.64 53.8721 174.147 54.0405 174.782 54.0405C175.661 54.0405 176.416 53.689 177.045 52.9858C177.68 52.2778 177.998 51.3037 177.998 50.0635H179.25C179.25 51.499 178.82 52.7051 177.961 53.6816C177.106 54.6582 176.047 55.1465 174.782 55.1465C173.713 55.1465 172.873 54.873 172.263 54.3262C171.657 53.7744 171.354 53.0713 171.354 52.2168ZM184.377 51.2793V51.0449C184.377 49.8828 184.692 48.9355 185.322 48.2031C185.952 47.4658 186.818 47.0972 187.922 47.0972C188.942 47.0972 189.719 47.373 190.251 47.9248C190.783 48.4766 191.049 49.0942 191.049 49.7778V49.8218H189.738V49.7778C189.738 49.3628 189.594 48.9966 189.306 48.6792C189.018 48.3618 188.557 48.2031 187.922 48.2031C187.185 48.2031 186.64 48.4766 186.289 49.0234C185.937 49.5703 185.761 50.2441 185.761 51.0449V51.2793C185.761 52.0752 185.937 52.7466 186.289 53.2935C186.64 53.8403 187.185 54.1138 187.922 54.1138C188.557 54.1138 189.018 53.9551 189.306 53.6377C189.594 53.3203 189.738 52.9541 189.738 52.5391V52.4951H191.049V52.5391C191.049 53.2227 190.783 53.8403 190.251 54.3921C189.719 54.9438 188.942 55.2197 187.922 55.2197C186.818 55.2197 185.952 54.8535 185.322 54.1211C184.692 53.3838 184.377 52.4365 184.377 51.2793ZM192.207 52.7368C192.207 51.9604 192.514 51.355 193.129 50.9204C193.75 50.4858 194.538 50.2686 195.495 50.2686H197.231V49.7412C197.231 49.2773 197.111 48.9014 196.872 48.6133C196.633 48.3203 196.22 48.1738 195.634 48.1738C195.053 48.1738 194.636 48.2959 194.382 48.54C194.128 48.7793 194.001 49.0576 194.001 49.375V49.4189H192.661V49.375C192.661 48.7646 192.932 48.2324 193.474 47.7783C194.016 47.3242 194.748 47.0972 195.671 47.0972C196.594 47.0972 197.309 47.3193 197.817 47.7637C198.33 48.2031 198.586 48.8623 198.586 49.7412V53.2422C198.586 53.5596 198.608 53.8599 198.652 54.1431C198.701 54.4214 198.769 54.668 198.857 54.8828V55H197.553C197.485 54.8779 197.421 54.7192 197.363 54.5239C197.309 54.3286 197.275 54.1333 197.26 53.938C197.08 54.2554 196.789 54.5361 196.389 54.7803C195.988 55.0244 195.471 55.1465 194.836 55.1465C194.104 55.1465 193.481 54.9414 192.968 54.5312C192.46 54.1162 192.207 53.5181 192.207 52.7368ZM193.562 52.6636C193.562 53.103 193.688 53.4473 193.942 53.6963C194.196 53.9453 194.589 54.0698 195.122 54.0698C195.659 54.0698 196.145 53.8843 196.579 53.5132C197.014 53.1421 197.231 52.749 197.231 52.334V51.228H195.642C194.953 51.228 194.433 51.3574 194.082 51.6162C193.735 51.875 193.562 52.2241 193.562 52.6636ZM200.703 55V47.3169H201.926L201.984 48.3057H202.028C202.224 47.9834 202.478 47.7026 202.79 47.4634C203.107 47.2192 203.488 47.0972 203.933 47.0972C204.035 47.0972 204.145 47.1094 204.262 47.1338C204.379 47.1582 204.462 47.1802 204.511 47.1997V48.4521C204.414 48.4326 204.311 48.418 204.204 48.4082C204.096 48.3984 203.979 48.3936 203.852 48.3936C203.417 48.3936 203.046 48.5083 202.739 48.7378C202.431 48.9673 202.204 49.2529 202.058 49.5947V55H200.703ZM205.8 55V47.3169H207.023L207.082 48.3057H207.126C207.321 47.9834 207.575 47.7026 207.888 47.4634C208.205 47.2192 208.586 47.0972 209.03 47.0972C209.133 47.0972 209.243 47.1094 209.36 47.1338C209.477 47.1582 209.56 47.1802 209.609 47.1997V48.4521C209.511 48.4326 209.409 48.418 209.301 48.4082C209.194 48.3984 209.077 48.3936 208.95 48.3936C208.515 48.3936 208.144 48.5083 207.836 48.7378C207.529 48.9673 207.302 49.2529 207.155 49.5947V55H205.8ZM210.305 51.2793V51.0449C210.305 49.8828 210.622 48.9355 211.257 48.2031C211.892 47.4658 212.731 47.0972 213.776 47.0972C214.821 47.0972 215.625 47.4414 216.186 48.1299C216.752 48.8135 217.036 49.7412 217.036 50.9131V51.4624H211.132V50.3857H215.681V50.2173C215.681 49.6606 215.522 49.187 215.205 48.7964C214.892 48.4009 214.436 48.2031 213.835 48.2031C213.112 48.2031 212.573 48.4766 212.216 49.0234C211.86 49.5703 211.682 50.2441 211.682 51.0449V51.2793C211.682 52.0752 211.87 52.7466 212.246 53.2935C212.622 53.8403 213.205 54.1138 213.996 54.1138C214.484 54.1138 214.904 54.0063 215.256 53.7915C215.607 53.5767 215.891 53.3228 216.105 53.0298L216.977 53.7256C216.738 54.0869 216.364 54.4263 215.856 54.7437C215.349 55.061 214.729 55.2197 213.996 55.2197C212.805 55.2197 211.892 54.8535 211.257 54.1211C210.622 53.3838 210.305 52.4365 210.305 51.2793ZM218.771 55V47.3169H220.119V55H218.771ZM218.603 44.9805C218.603 44.7559 218.676 44.5654 218.823 44.4092C218.969 44.2529 219.177 44.1748 219.445 44.1748C219.719 44.1748 219.926 44.2529 220.068 44.4092C220.214 44.5654 220.288 44.7559 220.288 44.9805C220.288 45.21 220.214 45.4028 220.068 45.5591C219.926 45.7153 219.719 45.7935 219.445 45.7935C219.177 45.7935 218.969 45.7153 218.823 45.5591C218.676 45.4028 218.603 45.21 218.603 44.9805ZM222.353 55V47.3169H223.576L223.635 48.3057H223.679C223.874 47.9834 224.128 47.7026 224.44 47.4634C224.758 47.2192 225.139 47.0972 225.583 47.0972C225.686 47.0972 225.795 47.1094 225.913 47.1338C226.03 47.1582 226.113 47.1802 226.162 47.1997V48.4521C226.064 48.4326 225.961 48.418 225.854 48.4082C225.747 48.3984 225.629 48.3936 225.502 48.3936C225.068 48.3936 224.697 48.5083 224.389 48.7378C224.082 48.9673 223.854 49.2529 223.708 49.5947V55H222.353ZM226.733 52.7368C226.733 51.9604 227.041 51.355 227.656 50.9204C228.276 50.4858 229.064 50.2686 230.021 50.2686H231.757V49.7412C231.757 49.2773 231.638 48.9014 231.398 48.6133C231.159 48.3203 230.747 48.1738 230.161 48.1738C229.58 48.1738 229.162 48.2959 228.908 48.54C228.654 48.7793 228.527 49.0576 228.527 49.375V49.4189H227.187V49.375C227.187 48.7646 227.458 48.2324 228 47.7783C228.542 47.3242 229.274 47.0972 230.197 47.0972C231.12 47.0972 231.835 47.3193 232.343 47.7637C232.856 48.2031 233.112 48.8623 233.112 49.7412V53.2422C233.112 53.5596 233.134 53.8599 233.178 54.1431C233.227 54.4214 233.295 54.668 233.383 54.8828V55H232.08C232.011 54.8779 231.948 54.7192 231.889 54.5239C231.835 54.3286 231.801 54.1333 231.787 53.938C231.606 54.2554 231.315 54.5361 230.915 54.7803C230.515 55.0244 229.997 55.1465 229.362 55.1465C228.63 55.1465 228.007 54.9414 227.495 54.5312C226.987 54.1162 226.733 53.5181 226.733 52.7368ZM228.088 52.6636C228.088 53.103 228.215 53.4473 228.469 53.6963C228.723 53.9453 229.116 54.0698 229.648 54.0698C230.185 54.0698 230.671 53.8843 231.105 53.5132C231.54 53.1421 231.757 52.749 231.757 52.334V51.228H230.168C229.479 51.228 228.959 51.3574 228.608 51.6162C228.261 51.875 228.088 52.2241 228.088 52.6636Z" fill="#D9D9D9"/>
<path d="M30 0L37.1824 10.2665L49.2836 7.01867L48.1865 19.5L59.5442 24.7906L50.681 33.6466L55.9808 45L43.4985 46.0869L40.2606 58.1908L30 51L19.7394 58.1908L16.5015 46.0869L4.01924 45L9.31904 33.6466L0.455767 24.7906L11.8135 19.5L10.7164 7.01867L22.8176 10.2665L30 0Z" fill="#2D6B5D"/>
<path d="M20.1758 35.2188H22.9883V35.4922C22.9883 36.7422 23.3984 37.6536 24.2188 38.2266C25.0521 38.7995 26.1719 39.0859 27.5781 39.0859C28.9974 39.0859 30.1107 38.819 30.918 38.2852C31.7253 37.7383 32.1289 36.9635 32.1289 35.9609C32.1289 34.9974 31.7773 34.2812 31.0742 33.8125C30.3841 33.3307 29.0299 32.8294 27.0117 32.3086C24.9805 31.7878 23.418 31.1042 22.3242 30.2578C21.2305 29.4115 20.6836 28.2135 20.6836 26.6641C20.6836 25.1016 21.2956 23.832 22.5195 22.8555C23.7565 21.8789 25.4167 21.3906 27.5 21.3906C29.5833 21.3906 31.263 21.8919 32.5391 22.8945C33.8151 23.8841 34.4531 25.2773 34.4531 27.0742V27.3281H31.6602V27.0352C31.6602 25.9154 31.3021 25.1016 30.5859 24.5938C29.8828 24.0729 28.8542 23.8125 27.5 23.8125C26.1589 23.8125 25.1562 24.0534 24.4922 24.5352C23.8281 25.0169 23.4961 25.694 23.4961 26.5664C23.4961 27.3607 23.8477 27.9922 24.5508 28.4609C25.2539 28.9297 26.5951 29.4245 28.5742 29.9453C30.5794 30.4661 32.1354 31.1628 33.2422 32.0352C34.362 32.8945 34.9219 34.1315 34.9219 35.7461C34.9219 37.4518 34.3099 38.8385 33.0859 39.9062C31.875 40.9609 30.0456 41.4883 27.5977 41.4883C25.1628 41.4883 23.3138 40.9544 22.0508 39.8867C20.8008 38.819 20.1758 37.3542 20.1758 35.4922V35.2188Z" fill="#D9D9D9"/>
<circle cx="39.5" cy="18.5" r="2.5" fill="#14213D"/>
</svg>
